cyclingleg_probed_states
version=1
nRows=4
nColumns=49
inDegrees=yes

# SIMM Motion File Header:
name cyclingleg_probed_states
datacolumns 49
datarows 4
otherdata 1
range 0.35342342 0.35483505
endheader
time	/jointset/bb/crank_angle/value	/jointset/bb/crank_angle/speed	/jointset/spindle/pedal_angle_r/value	/jointset/spindle/pedal_angle_r/speed	/jointset/ground_pelvis/pelvis_tilt/value	/jointset/ground_pelvis/pelvis_tilt/speed	/jointset/ground_pelvis/pelvis_list/value	/jointset/ground_pelvis/pelvis_list/speed	/jointset/ground_pelvis/pelvis_rotation/value	/jointset/ground_pelvis/pelvis_rotation/speed	/jointset/ground_pelvis/pelvis_tx/value	/jointset/ground_pelvis/pelvis_tx/speed	/jointset/ground_pelvis/pelvis_ty/value	/jointset/ground_pelvis/pelvis_ty/speed	/jointset/ground_pelvis/pelvis_tz/value	/jointset/ground_pelvis/pelvis_tz/speed	/jointset/hip_r/hip_angle_r/value	/jointset/hip_r/hip_angle_r/speed	/jointset/hip_r/hip_adduction_r/value	/jointset/hip_r/hip_adduction_r/speed	/jointset/hip_r/hip_rotation_r/value	/jointset/hip_r/hip_rotation_r/speed	/jointset/knee_r/knee_angle_r/value	/jointset/knee_r/knee_angle_r/speed	/jointset/knee_r/tib_tx_r/value	/jointset/knee_r/tib_tx_r/speed	/jointset/knee_r/tib_ty_r/value	/jointset/knee_r/tib_ty_r/speed	/jointset/tib_pat_r/pat_angle_r/value	/jointset/tib_pat_r/pat_angle_r/speed	/jointset/tib_pat_r/pat_tx_r/value	/jointset/tib_pat_r/pat_tx_r/speed	/jointset/tib_pat_r/pat_ty_r/value	/jointset/tib_pat_r/pat_ty_r/speed	/jointset/ankle_r/ankle_angle_r/value	/jointset/ankle_r/ankle_angle_r/speed	/jointset/subtalar_r/subtalar_angle_r/value	/jointset/subtalar_r/subtalar_angle_r/speed	/jointset/mtp_r/mtp_angle_r/value	/jointset/mtp_r/mtp_angle_r/speed	/forceset/bifemlh_r/activation	/forceset/bifemlh_r/fiber_length	/forceset/bifemsh_r/activation	/forceset/bifemsh_r/fiber_length	/forceset/glut_max2_r/activation	/forceset/glut_max2_r/fiber_length	/forceset/vas_int_r/activation	/forceset/vas_int_r/fiber_length
      0.35342342	   -124.09224027	   -677.15488189	    140.69243001	    766.75980896	     -0.00000000	     -0.00000000	      0.00000000	      0.00000000	     -0.00000000	     -0.00000000	     -0.10000000	      0.00000000	     -0.05000000	     -0.00000000	     -0.00000000	     -0.00000000	     49.78859274	   -300.21534981	      4.38143202	     -0.43449505	      1.14980661	     30.25607952	    -55.19795233	    353.05794881	      0.00441802	     -0.03393966	     -0.47452626	      0.10319422	     17.27431435	    -10.94219270	      0.04421398	      0.10119376	     -0.02310174	     -0.01320567	     22.42209783	     36.31151414	      0.00000000	      0.00000000	     -0.00000000	     -0.00000000	     -0.02006114	      0.13138697	     -0.02006114	      0.16885208	     -0.02006114	      0.13818350	     -0.02006114	      0.12616857
      0.35387395	   -124.39763153	   -678.56004336	    141.03812076	    767.85302455	     -0.00000000	     -0.00000000	      0.00000000	      0.00000000	     -0.00000000	     -0.00000000	     -0.10000000	      0.00000000	     -0.05000000	     -0.00000000	     -0.00000000	     -0.00000000	     49.65329296	   -300.41455913	      4.38123370	     -0.44589308	      1.16344135	     30.27194908	    -55.03900288	    352.55715871	      0.00440267	     -0.03419299	     -0.47447984	      0.10287900	     17.26935734	    -11.06321436	      0.04425951	      0.10093399	     -0.02310768	     -0.01319910	     22.43854617	     36.70674094	      0.00000000	      0.00000000	     -0.00000000	     -0.00000000	     -0.02011914	      0.13133856	     -0.02011914	      0.16893268	     -0.02011914	      0.13808974	     -0.02011914	      0.12604916
      0.35435450	   -124.72407769	   -680.07788064	    141.40739395	    769.02403825	     -0.00000000	     -0.00000000	      0.00000000	      0.00000000	     -0.00000000	     -0.00000000	     -0.10000000	      0.00000000	     -0.05000000	     -0.00000000	     -0.00000000	     -0.00000000	     49.50887944	   -300.61769235	      4.38101652	     -0.45796404	      1.17799234	     30.28747918	    -54.86971411	    352.00109676	      0.00438618	     -0.03445704	     -0.47443048	      0.10253637	     17.26400997	    -11.19192095	      0.04430795	      0.10065102	     -0.02311403	     -0.01319148	     22.45628660	     37.12678859	      0.00000000	      0.00000000	     -0.00000000	     -0.00000000	     -0.02018101	      0.13128669	     -0.02018101	      0.16907978	     -0.02018101	      0.13798948	     -0.02018101	      0.12591936
      0.35483505	   -125.05125859	   -681.61794963	    141.77723168	    770.20245597	     -0.00000000	     -0.00000000	      0.00000000	      0.00000000	     -0.00000000	     -0.00000000	     -0.10000000	      0.00000000	     -0.05000000	     -0.00000000	     -0.00000000	     -0.00000000	     49.36437045	   -300.81181701	      4.38079357	     -0.46994277	      1.19255045	     30.30158885	    -54.70069785	    351.42284371	      0.00436956	     -0.03471473	     -0.47438129	      0.10218730	     17.25860084	    -11.32020322	      0.04435625	      0.10036213	     -0.02312036	     -0.01318323	     22.47422850	     37.54521464	      0.00000000	      0.00000000	     -0.00000000	     -0.00000000	     -0.02024288	      0.13123459	     -0.02024288	      0.16912909	     -0.02024288	      0.13788898	     -0.02024288	      0.12578861
